<svg width="300" height="220" viewBox="0 0 300 220" fill="none" xmlns="http://www.w3.org/2000/svg">
<g clip-path="url(#clip0_1_13)">
<path d="M207.2 123.2C207.2 117.733 202.767 113.3 197.3 113.3H102.7C97.2326 113.3 92.7998 117.733 92.7998 123.2V195.8C92.7998 201.267 97.2326 205.7 102.7 205.7H197.3C202.767 205.7 207.2 201.267 207.2 195.8V123.2ZM213.8 195.8C213.8 204.913 206.413 212.3 197.3 212.3H102.7C93.5875 212.3 86.2002 204.913 86.2002 195.8V123.2C86.2002 114.087 93.5875 106.7 102.7 106.7H197.3C206.413 106.7 213.8 114.087 213.8 123.2V195.8Z" fill="black"/>
<path d="M89.5 134.2C91.3225 134.2 92.7998 135.677 92.7998 137.5C92.7998 139.323 91.3225 140.8 89.5 140.8C85.2803 140.8 82.114 142.841 79.8711 146.205C77.5629 149.667 76.2998 154.49 76.2998 159.5C76.2998 164.51 77.5629 169.333 79.8711 172.795C82.114 176.159 85.2803 178.2 89.5 178.2C91.3225 178.2 92.7998 179.677 92.7998 181.5C92.7998 183.323 91.3225 184.8 89.5 184.8C82.7199 184.8 77.636 181.341 74.3789 176.455C71.1873 171.667 69.7002 165.489 69.7002 159.5C69.7002 153.511 71.1873 147.333 74.3789 142.545C77.636 137.659 82.7199 134.2 89.5 134.2Z" fill="black"/>
<path d="M210.5 134.2C217.28 134.2 222.364 137.659 225.621 142.545C228.813 147.333 230.3 153.511 230.3 159.5C230.3 165.489 228.813 171.667 225.621 176.455C222.364 181.341 217.28 184.8 210.5 184.8C208.677 184.8 207.2 183.323 207.2 181.5C207.2 179.677 208.677 178.2 210.5 178.2C214.72 178.2 217.886 176.159 220.129 172.795C222.437 169.333 223.7 164.51 223.7 159.5C223.7 154.49 222.437 149.667 220.129 146.205C217.886 142.841 214.72 140.8 210.5 140.8C208.677 140.8 207.2 139.323 207.2 137.5C207.2 135.677 208.677 134.2 210.5 134.2Z" fill="black"/>
<path d="M146.7 110V82.5C146.7 80.6775 148.177 79.2002 150 79.2002C151.823 79.2002 153.3 80.6775 153.3 82.5V110C153.3 111.823 151.823 113.3 150 113.3C148.177 113.3 146.7 111.823 146.7 110Z" fill="black"/>
<path d="M152.2 77C152.2 75.785 151.215 74.7998 150 74.7998C148.785 74.7998 147.8 75.785 147.8 77C147.8 78.215 148.785 79.2002 150 79.2002C151.215 79.2002 152.2 78.215 152.2 77ZM158.8 77C158.8 81.8601 154.86 85.7998 150 85.7998C145.14 85.7998 141.2 81.8601 141.2 77C141.2 72.1399 145.14 68.2002 150 68.2002C154.86 68.2002 158.8 72.1399 158.8 77Z" fill="black"/>
<path d="M122.5 162.25C127.056 162.25 130.75 158.556 130.75 154C130.75 149.444 127.056 145.75 122.5 145.75C117.944 145.75 114.25 149.444 114.25 154C114.25 158.556 117.944 162.25 122.5 162.25Z" fill="black"/>
<path d="M177.5 162.25C182.056 162.25 185.75 158.556 185.75 154C185.75 149.444 182.056 145.75 177.5 145.75C172.944 145.75 169.25 149.444 169.25 154C169.25 158.556 172.944 162.25 177.5 162.25Z" fill="black"/>
<path d="M166.5 183.7C168.323 183.7 169.8 185.177 169.8 187C169.8 188.823 168.323 190.3 166.5 190.3H133.5C131.677 190.3 130.2 188.823 130.2 187C130.2 185.177 131.677 183.7 133.5 183.7H166.5Z" fill="black"/>
<mask id="mask0_1_13" style="mask-type:luminance" maskUnits="userSpaceOnUse" x="0" y="0" width="300" height="220">
<path d="M300 0H0V220H300V0Z" fill="white"/>
<path d="M197.3 110H102.7C95.4098 110 89.5 115.91 89.5 123.2V195.8C89.5 203.09 95.4098 209 102.7 209H197.3C204.59 209 210.5 203.09 210.5 195.8V123.2C210.5 115.91 204.59 110 197.3 110Z" fill="black"/>
<path d="M201.7 123.2C201.7 120.77 199.73 118.8 197.3 118.8H102.7C100.27 118.8 98.2998 120.77 98.2998 123.2V195.8C98.2998 198.23 100.27 200.2 102.7 200.2H197.3C199.73 200.2 201.7 198.23 201.7 195.8V123.2ZM219.3 195.8C219.3 207.95 209.45 217.8 197.3 217.8H102.7C90.5499 217.8 80.7002 207.95 80.7002 195.8V123.2C80.7002 111.05 90.5499 101.2 102.7 101.2H197.3C209.45 101.2 219.3 111.05 219.3 123.2V195.8Z" fill="black"/>
<path d="M89.5 146.3C87.4136 146.3 85.8451 147.16 84.4473 149.257C82.8756 151.614 81.7998 155.306 81.7998 159.5C81.7998 163.694 82.8756 167.386 84.4473 169.743C85.8451 171.84 87.4136 172.7 89.5 172.7V190.3C80.5865 190.3 73.9049 185.66 69.8027 179.507C65.8745 173.614 64.2002 166.305 64.2002 159.5C64.2002 152.695 65.8745 145.386 69.8027 139.493C73.9049 133.34 80.5865 128.7 89.5 128.7V146.3Z" fill="black"/>
<path d="M210.5 128.7C219.413 128.7 226.095 133.34 230.197 139.493C234.126 145.386 235.8 152.695 235.8 159.5C235.8 166.305 234.126 173.614 230.197 179.507C226.095 185.66 219.413 190.3 210.5 190.3V172.7C212.586 172.7 214.155 171.84 215.553 169.743C217.124 167.386 218.2 163.694 218.2 159.5C218.2 155.306 217.124 151.614 215.553 149.257C214.155 147.16 212.586 146.3 210.5 146.3V128.7Z" fill="black"/>
<path d="M158.8 82.5V110H141.2V82.5H158.8Z" fill="black"/>
<path d="M150 73.7002C148.177 73.7002 146.7 75.1775 146.7 77L146.704 77.1699C146.793 78.9135 148.234 80.2998 150 80.2998C151.823 80.2998 153.3 78.8225 153.3 77C153.3 75.2344 151.913 73.7925 150.17 73.7041L150 73.7002ZM164.3 77C164.3 84.8977 157.898 91.2998 150 91.2998C142.102 91.2998 135.7 84.8977 135.7 77C135.7 69.1023 142.102 62.7002 150 62.7002C157.898 62.7002 164.3 69.1023 164.3 77Z" fill="black"/>
<path d="M150 82.5C153.038 82.5 155.5 80.0376 155.5 77C155.5 73.9624 153.038 71.5 150 71.5C146.962 71.5 144.5 73.9624 144.5 77C144.5 80.0376 146.962 82.5 150 82.5Z" fill="black"/>
<path d="M150 73.7002C148.177 73.7002 146.7 75.1775 146.7 77L146.704 77.1699C146.793 78.9135 148.234 80.2998 150 80.2998C151.823 80.2998 153.3 78.8225 153.3 77C153.3 75.2344 151.913 73.7925 150.17 73.7041L150 73.7002ZM164.3 77C164.3 84.8977 157.898 91.2998 150 91.2998C142.102 91.2998 135.7 84.8977 135.7 77C135.7 69.1023 142.102 62.7002 150 62.7002C157.898 62.7002 164.3 69.1023 164.3 77Z" fill="black"/>
</mask>
<g mask="url(#mask0_1_13)">
<path d="M135.356 49.1326C133.941 43.8513 128.512 40.7168 123.231 42.132L31.8544 66.6161C26.5731 68.0313 23.4386 73.4603 24.8538 78.7416L43.6439 148.867C45.0591 154.149 50.4881 157.283 55.7694 155.868L147.146 131.384C152.427 129.969 155.561 124.54 154.146 119.258L135.356 49.1326ZM160.521 117.55C162.879 126.353 157.656 135.4 148.854 137.759L57.4775 162.243C48.6753 164.601 39.6277 159.378 37.2692 150.576L18.479 80.4497C16.1205 71.6475 21.3441 62.5999 30.1463 60.2414L121.523 35.7572C130.325 33.3987 139.372 38.6223 141.731 47.4245L160.521 117.55Z" fill="black"/>
<path d="M24.5134 90.2208C26.2739 89.7491 28.0831 90.7937 28.5548 92.5541C29.0265 94.3146 27.982 96.1238 26.2215 96.5955C22.1456 97.6877 19.6155 100.479 18.3197 104.309C16.9863 108.25 17.0143 113.235 18.3111 118.075C19.6079 122.915 22.0761 127.246 25.2017 129.993C28.2389 132.662 31.8255 133.814 35.9015 132.722C37.6619 132.25 39.4712 133.294 39.9429 135.055C40.4146 136.815 39.37 138.625 37.6096 139.096C31.0605 140.851 25.2545 138.826 20.8439 134.95C16.5219 131.151 13.4865 125.568 11.9363 119.783C10.3862 113.998 10.2236 107.645 12.0673 102.195C13.9489 96.6327 17.9644 91.9756 24.5134 90.2208Z" fill="black"/>
<path d="M73.5011 52.0407L66.3836 25.4778C65.9119 23.7173 66.9564 21.9081 68.7169 21.4364C70.4773 20.9646 72.2866 22.0092 72.7583 23.7697L79.8758 50.3326C80.3475 52.0931 79.3029 53.9023 77.5425 54.374C75.7821 54.8458 73.9728 53.8012 73.5011 52.0407Z" fill="black"/>
<path d="M70.2726 18.7417C69.9582 17.568 68.7516 16.8714 67.578 17.1859C66.4043 17.5004 65.7077 18.7069 66.0222 19.8806C66.3367 21.0542 67.5432 21.7508 68.7169 21.4363C69.8905 21.1219 70.5871 19.9153 70.2726 18.7417ZM76.6474 17.0336C77.9053 21.7281 75.1195 26.5532 70.425 27.8111C65.7305 29.069 60.9053 26.2832 59.6475 21.5887C58.3896 16.8942 61.1754 12.069 65.8699 10.8112C70.5644 9.55327 75.3895 12.3391 76.6474 17.0336Z" fill="black"/>
<path d="M63.6488 108.774C68.0499 107.595 70.6617 103.071 69.4824 98.6697C68.3032 94.2686 63.7794 91.6568 59.3783 92.836C54.9772 94.0153 52.3654 98.5391 53.5447 102.94C54.7239 107.341 59.2477 109.953 63.6488 108.774Z" fill="black"/>
<path d="M116.775 94.5388C121.176 93.3595 123.788 88.8357 122.608 84.4346C121.429 80.0335 116.905 77.4217 112.504 78.601C108.103 79.7803 105.491 84.304 106.671 88.7051C107.85 93.1062 112.374 95.718 116.775 94.5388Z" fill="black"/>
<path d="M275.146 78.7416C276.561 73.4603 273.427 68.0313 268.146 66.6161L176.769 42.132C171.488 40.7168 166.059 43.8513 164.644 49.1326L145.854 119.258C144.439 124.54 147.573 129.969 152.854 131.384L244.231 155.868C249.512 157.283 254.941 154.149 256.356 148.867L275.146 78.7416ZM262.731 150.576C260.372 159.378 251.325 164.601 242.523 162.243L151.146 137.759C142.344 135.4 137.121 126.353 139.479 117.55L158.269 47.4245C160.628 38.6223 169.675 33.3987 178.477 35.7572L269.854 60.2414C278.656 62.5999 283.88 71.6475 281.521 80.4497L262.731 150.576Z" fill="black"/>
<path d="M275.487 90.2208C282.036 91.9756 286.051 96.6328 287.933 102.195C289.776 107.645 289.614 113.998 288.064 119.783C286.514 125.568 283.478 131.151 279.156 134.95C274.746 138.826 268.94 140.851 262.39 139.096C260.63 138.625 259.585 136.815 260.057 135.055C260.529 133.294 262.338 132.25 264.099 132.722C268.174 133.814 271.761 132.662 274.798 129.993C277.924 127.246 280.392 122.915 281.689 118.075C282.986 113.235 283.014 108.25 281.68 104.309C280.385 100.479 277.854 97.6877 273.778 96.5956C272.018 96.1239 270.973 94.3146 271.445 92.5541C271.917 90.7937 273.726 89.7491 275.487 90.2208Z" fill="black"/>
<path d="M220.124 50.3326L227.242 23.7697C227.713 22.0092 229.523 20.9646 231.283 21.4363C233.044 21.9081 234.088 23.7173 233.616 25.4778L226.499 52.0407C226.027 53.8012 224.218 54.8457 222.458 54.374C220.697 53.9023 219.652 52.0931 220.124 50.3326Z" fill="black"/>
<path d="M233.978 19.8806C234.292 18.707 233.596 17.5004 232.422 17.1859C231.248 16.8714 230.042 17.5681 229.727 18.7417C229.413 19.9153 230.109 21.1219 231.283 21.4364C232.457 21.7508 233.663 21.0542 233.978 19.8806ZM240.353 21.5887C239.095 26.2832 234.27 29.069 229.575 27.8111C224.881 26.5532 222.095 21.7281 223.353 17.0336C224.61 12.3391 229.436 9.55328 234.13 10.8112C238.825 12.0691 241.61 16.8942 240.353 21.5887Z" fill="black"/>
<path d="M183.225 94.5388C187.626 95.718 192.15 93.1062 193.329 88.7051C194.509 84.3041 191.897 79.7803 187.496 78.601C183.095 77.4217 178.571 80.0335 177.392 84.4346C176.212 88.8357 178.824 93.3595 183.225 94.5388Z" fill="black"/>
<path d="M236.351 108.774C240.752 109.953 245.276 107.341 246.455 102.94C247.635 98.5391 245.023 94.0153 240.622 92.836C236.221 91.6568 231.697 94.2686 230.518 98.6697C229.338 103.071 231.95 107.595 236.351 108.774Z" fill="black"/>
</g>
</g>
<defs>
<clipPath id="clip0_1_13">
<rect width="300" height="220" fill="white"/>
</clipPath>
</defs>
</svg>
